<?xml version="1.0" encoding="utf-8"?>
<!-- Svg Vector Icons : http://www.onlinewebfonts.com/icon -->
<!DOCTYPE svg PUBLIC "-//W3C//DTD SVG 1.1//EN" "http://www.w3.org/Graphics/SVG/1.1/DTD/svg11.dtd">
<svg version="1.1" xmlns="http://www.w3.org/2000/svg" xmlns:xlink="http://www.w3.org/1999/xlink" x="0px" y="0px" viewBox="0 0 1000 1000" enable-background="new 0 0 1000 1000" xml:space="preserve">
<metadata> Svg Vector Icons : http://www.onlinewebfonts.com/icon </metadata>
<g><g transform="translate(0.000000,511.000000) scale(0.100000,-0.100000)"><path d="M208.3,3507.1c-34.7-14.3-73.5-44.9-85.8-69.5C106.1,3409.1,100,2639,100,874.2v-2524.7h2910.7h2910.7l12.3-55.2c34.7-165.4,81.7-298.2,151.2-449.4c410.6-878.3,1344-1331.8,2287.7-1109.1c232.9,55.2,582.1,230.8,782.3,390.1c492.3,394.2,790.5,1074.4,739.4,1691.3c-75.6,925.3-761.9,1683.1-1652.5,1824.1l-155.2,24.5l-4.1,1407.4c-6.1,1364.5-8.2,1407.4-44.9,1436C7978.4,3552.1,308.3,3550,208.3,3507.1z M1254.1,2816.7c44.9-26.6,710.8-447.3,1480.9-933.5c770.1-486.1,1409.4-884.4,1421.7-884.4c10.2,0,680.2,410.6,1485,911c1607.5,1002.9,1558.5,978.4,1677,859.9c65.3-67.4,73.5-202.2,14.3-265.5c-20.4-22.5-506.6-335-1082.6-692.4c-574-357.5-1043.8-657.7-1043.8-665.9c0-8.2,279.8-251.2,623-539.2l623-522.9L6338.2-63.4c-63.3-81.7-122.6-149.1-132.8-153.2c-12.3-6.2-1105.1,894.7-1337.9,1103c-42.9,38.8-44.9,36.8-345.2-151.2c-216.5-134.8-320.7-187.9-367.7-187.9s-151.2,55.2-377.9,198.1c-259.4,163.4-318.6,192-345.2,171.6c-16.3-12.3-508.6-426.9-1092.8-919.2c-586.2-492.3-1092.8-911-1127.5-927.4c-159.3-79.7-328.9,93.9-261.5,267.6c8.2,18.4,490.2,435.1,1072.4,925.3c584.2,490.2,1060.1,898.8,1060.1,904.9c0,8.2-469.8,310.5-1041.7,674.1c-574,361.5-1056,678.1-1072.4,700.6c-67.4,98-20.4,253.3,91.9,298.2C1137.6,2871.9,1164.2,2867.8,1254.1,2816.7z M8225.5,251.2C8805.6,130.7,9273.4-304.4,9447-884.5c71.5-241,75.6-588.3,10.2-831.3C9304-2296,8842.4-2747.4,8254.1-2890.4c-187.9-44.9-543.3-44.9-729.2,2.1C6536.3-2635,6015.4-1577,6428-665.9C6748.7,42.8,7465.7,406.4,8225.5,251.2z"/><path d="M7616.8-49.1c-316.6-85.8-541.3-332.9-592.4-655.7c-24.5-145-8.2-206.3,73.5-269.6c122.6-96,281.9-14.3,304.4,157.3c26.6,206.3,112.3,316.6,294.1,382c192,67.4,353.4,28.6,502.5-118.5c122.6-124.6,163.4-237,149.1-420.8c-16.3-239-194.1-420.8-433-445.3c-83.7-8.2-128.7-24.5-165.4-63.3c-49-49-51.1-57.2-51.1-349.3c2-202.2,10.2-308.4,26.6-330.9c57.2-73.5,179.7-102.1,261.4-59.2c67.4,36.8,100.1,130.7,100.1,286c0,118.5,6.1,147.1,36.8,157.3c339.1,114.4,565.8,384,614.8,725.1C8830.1-398.4,8250,120.5,7616.8-49.1z"/><path d="M7786.4-2396c-185.9-79.7-124.6-357.5,79.7-357.5c98,0,200.2,87.8,200.2,173.6c0,83.7-53.1,167.5-124.6,192C7861.9-2361.3,7866-2361.3,7786.4-2396z"/></g></g>
</svg>