<?xml version="1.0" encoding="UTF-8"?>
<!DOCTYPE svg PUBLIC "-//W3C//DTD SVG 1.1//EN" "http://www.w3.org/Graphics/SVG/1.1/DTD/svg11.dtd">
<!-- Creator: CorelDRAW 2020 (64-Bit) -->
<svg xmlns="http://www.w3.org/2000/svg" xml:space="preserve" width="0.296945in" height="0.294252in" version="1.1" style="shape-rendering:geometricPrecision; text-rendering:geometricPrecision; image-rendering:optimizeQuality; fill-rule:evenodd; clip-rule:evenodd"
viewBox="0 0 24.73 24.51"
 xmlns:xlink="http://www.w3.org/1999/xlink"
 xmlns:xodm="http://www.corel.com/coreldraw/odm/2003">
 <defs>
  <style type="text/css">
   <![CDATA[
    .str0 {stroke:black;stroke-width:0.58;stroke-miterlimit:2.61313}
    .fil0 {fill:black}
    .fil1 {fill:white;fill-rule:nonzero}
   ]]>
  </style>
 </defs>
 <g id="Layer_x0020_1">
  <metadata id="CorelCorpID_0Corel-Layer"/>
  <polygon class="fil0 str0" points="0.29,8.68 12.11,0.35 24.44,8.68 24.44,23.95 12.11,15.62 0.29,23.95 "/>
  <polygon class="fil1" points="5.02,9.59 5.02,8.45 9.55,8.45 9.55,9.59 7.98,9.59 7.98,13.66 6.59,13.66 6.59,9.59 "/>
  <path id="1" class="fil1" d="M14.88 11.05c0,0.58 -0.11,1.07 -0.34,1.47 -0.23,0.4 -0.53,0.7 -0.91,0.9 -0.38,0.2 -0.81,0.31 -1.28,0.31 -0.47,0 -0.9,-0.1 -1.29,-0.31 -0.38,-0.21 -0.69,-0.51 -0.91,-0.91 -0.23,-0.4 -0.34,-0.88 -0.34,-1.46 0,-0.58 0.11,-1.07 0.34,-1.47 0.22,-0.4 0.53,-0.7 0.91,-0.9 0.38,-0.2 0.81,-0.31 1.29,-0.31 0.47,0 0.9,0.1 1.28,0.31 0.38,0.21 0.69,0.51 0.91,0.9 0.23,0.4 0.34,0.89 0.34,1.47zm-1.45 0c0,-0.31 -0.04,-0.58 -0.12,-0.79 -0.08,-0.21 -0.2,-0.38 -0.36,-0.49 -0.16,-0.11 -0.36,-0.17 -0.59,-0.17 -0.23,0 -0.43,0.05 -0.59,0.17 -0.16,0.11 -0.28,0.27 -0.36,0.49 -0.08,0.21 -0.12,0.48 -0.12,0.79 0,0.31 0.04,0.58 0.12,0.79 0.08,0.21 0.2,0.38 0.36,0.49 0.16,0.11 0.36,0.17 0.59,0.17 0.23,0 0.43,-0.05 0.59,-0.17 0.16,-0.11 0.28,-0.27 0.36,-0.49 0.08,-0.21 0.12,-0.48 0.12,-0.79z"/>
  <path id="2" class="fil1" d="M15.53 13.66l0 -5.21 2.25 0c0.39,0 0.72,0.08 1.01,0.23 0.29,0.15 0.52,0.37 0.68,0.64 0.16,0.28 0.24,0.6 0.24,0.97 0,0.37 -0.08,0.7 -0.25,0.97 -0.16,0.27 -0.4,0.48 -0.69,0.63 -0.3,0.15 -0.64,0.22 -1.04,0.22l-1.34 0 0 -1.1 1.06 0c0.17,0 0.31,-0.03 0.42,-0.09 0.12,-0.06 0.21,-0.14 0.27,-0.25 0.06,-0.11 0.1,-0.24 0.1,-0.38 0,-0.15 -0.03,-0.28 -0.1,-0.38 -0.06,-0.11 -0.15,-0.19 -0.27,-0.24 -0.12,-0.06 -0.26,-0.09 -0.42,-0.09l-0.5 0 0 4.08 -1.41 0z"/>
 </g>
</svg>
