<?xml version="1.0" encoding="UTF-8"?>
<!DOCTYPE svg PUBLIC "-//W3C//DTD SVG 1.1//EN" "http://www.w3.org/Graphics/SVG/1.1/DTD/svg11.dtd">
<!-- Creator: CorelDRAW 2020 (64-Bit) -->
<svg xmlns="http://www.w3.org/2000/svg" xml:space="preserve" width="0.166665in" height="0.192453in" version="1.1" style="shape-rendering:geometricPrecision; text-rendering:geometricPrecision; image-rendering:optimizeQuality; fill-rule:evenodd; clip-rule:evenodd"
viewBox="0 0 6.22 7.18"
 xmlns:xlink="http://www.w3.org/1999/xlink"
 xmlns:xodm="http://www.corel.com/coreldraw/odm/2003">
 <defs>
  <style type="text/css">
   <![CDATA[
    .fil1 {fill:#0A1847}
    .fil0 {fill:#990000}
   ]]>
  </style>
 </defs>
 <g id="Layer_x0020_1">
  <metadata id="CorelCorpID_0Corel-Layer"/>
  <g id="_2549056833136">
   <polygon class="fil0" points="-0,1.8 -0,5.39 0.7,5.79 0.7,3.51 3.81,5.3 3.81,5.97 3.11,6.37 2.41,5.97 2.41,6.78 3.11,7.18 4.51,6.37 4.51,4.9 3.46,4.29 3.46,3.3 5.52,4.49 5.52,5.86 6.22,5.39 6.22,1.8 5.52,1.39 5.52,3.68 2.41,1.88 2.41,1.22 3.11,0.81 3.81,1.22 3.81,0.41 3.11,0 1.71,0.81 1.71,2.28 2.76,2.89 2.76,3.88 0.7,2.7 0.7,1.32 "/>
   <g>
    <polygon class="fil1" points="6.22,5.39 6.22,1.8 5.52,1.39 5.52,3.68 2.41,1.88 2.41,1.22 3.11,0.81 3.81,1.22 3.81,0.41 3.11,0 1.71,0.81 1.71,2.29 5.52,4.49 5.52,5.86 "/>
   </g>
  </g>
 </g>
</svg>
