<?xml version="1.0" encoding="UTF-8"?>
<!DOCTYPE svg PUBLIC "-//W3C//DTD SVG 1.1//EN" "http://www.w3.org/Graphics/SVG/1.1/DTD/svg11.dtd">
<!-- Creator: CorelDRAW 2020 (64-Bit) -->
<svg xmlns="http://www.w3.org/2000/svg" xml:space="preserve" width="1.6509in" height="1.90631in" version="1.1" style="shape-rendering:geometricPrecision; text-rendering:geometricPrecision; image-rendering:optimizeQuality; fill-rule:evenodd; clip-rule:evenodd"
viewBox="0 0 380.48 439.34"
 xmlns:xlink="http://www.w3.org/1999/xlink"
 xmlns:xodm="http://www.corel.com/coreldraw/odm/2003">
 <defs>
  <style type="text/css">
   <![CDATA[
    .fil0 {fill:#990000}
   ]]>
  </style>
 </defs>
 <g id="Layer_x0020_1">
  <metadata id="CorelCorpID_0Corel-Layer"/>
  <polygon class="fil0" points="-0,109.83 -0,329.51 42.92,354.29 42.92,214.49 233.16,324.32 233.16,365 190.24,389.78 147.31,365 147.31,414.56 190.24,439.34 276.08,389.77 276.08,299.54 211.7,262.37 211.7,201.76 337.55,274.42 337.55,358.81 380.48,329.51 380.48,109.83 337.55,85.05 337.55,224.85 147.31,115.02 147.31,74.34 190.24,49.56 233.16,74.34 233.16,24.78 190.24,0 104.39,49.56 104.39,139.8 168.78,176.97 168.78,237.58 42.92,164.92 42.92,80.53 "/>
 </g>
</svg>
