<?xml version="1.0" encoding="UTF-8"?>
<!DOCTYPE svg PUBLIC "-//W3C//DTD SVG 1.1//EN" "http://www.w3.org/Graphics/SVG/1.1/DTD/svg11.dtd">
<!-- Creator: CorelDRAW 2020 (64-Bit) -->
<svg xmlns="http://www.w3.org/2000/svg" xml:space="preserve" width="1.42247in" height="1.64254in" version="1.1" style="shape-rendering:geometricPrecision; text-rendering:geometricPrecision; image-rendering:optimizeQuality; fill-rule:evenodd; clip-rule:evenodd"
viewBox="0 0 1251.38 1444.98"
 xmlns:xlink="http://www.w3.org/1999/xlink"
 xmlns:xodm="http://www.corel.com/coreldraw/odm/2003">
 <defs>
  <style type="text/css">
   <![CDATA[
    .fil0 {fill:rgb(255, 153, 0)}
   ]]>
  </style>
 </defs>
 <g id="Layer_x0020_1">
  <metadata id="CorelCorpID_0Corel-Layer"/>
  <polygon class="fil0" points="-0,361.23 -0,1083.75 141.17,1165.25 141.17,705.44 766.86,1066.69 766.86,1200.47 625.69,1281.98 484.52,1200.47 484.52,1363.48 625.69,1444.98 908.04,1281.96 908.04,985.18 696.28,862.92 696.28,663.57 1110.21,902.55 1110.21,1180.12 1251.38,1083.75 1251.38,361.23 1110.21,279.73 1110.21,739.54 484.52,378.29 484.52,244.51 625.69,163.01 766.86,244.5 766.86,81.5 625.69,0 343.34,163.02 343.34,459.8 555.11,582.06 555.11,781.41 141.17,542.42 141.17,264.86 "/>
 </g>
</svg>
