<?xml version="1.0" encoding="UTF-8"?>
<!DOCTYPE svg PUBLIC "-//W3C//DTD SVG 1.1//EN" "http://www.w3.org/Graphics/SVG/1.1/DTD/svg11.dtd">
<!-- Creator: CorelDRAW 2020 (64-Bit) -->
<svg xmlns="http://www.w3.org/2000/svg" xml:space="preserve" width="0.137984in" height="0.0833976in" version="1.1" style="shape-rendering:geometricPrecision; text-rendering:geometricPrecision; image-rendering:optimizeQuality; fill-rule:evenodd; clip-rule:evenodd"
viewBox="0 0 6.57 3.97"
 xmlns:xlink="http://www.w3.org/1999/xlink"
 xmlns:xodm="http://www.corel.com/coreldraw/odm/2003">
 <defs>
  <style type="text/css">
   <![CDATA[
    .fil0 {fill:white;fill-rule:nonzero}
   ]]>
  </style>
 </defs>
 <g id="Layer_x0020_1">
  <metadata id="CorelCorpID_0Corel-Layer"/>
  <g>
   <path class="fil0" d="M5.44 1.99l-0 0.32 -0 0 -0 0 -0.01 0 -0.01 0 -0.02 0 -0.02 0 -0.03 0 -0.04 0 -0.05 0 -0.05 0 -0.07 0 -0.08 0 -0.09 0 -0.1 0 -0.12 0 -0.14 0 -0.15 0 -0.17 0 -0.19 0 -0.21 0 -0.23 0 -0.25 0 -0.28 0 -0.3 0 -0.32 0 -0.35 0 -0.38 0 -0.4 0 -0.43 0 -0.46 0 -0.49 0 0 -0.64 0.49 0 0.46 0 0.43 0 0.4 0 0.38 0 0.35 0 0.32 0 0.3 0 0.28 0 0.25 0 0.23 0 0.21 0 0.19 0 0.17 0 0.15 0 0.14 0 0.12 0 0.1 0 0.09 0 0.08 0 0.07 0 0.05 0 0.05 0 0.04 0 0.03 0 0.02 0 0.02 0 0.01 0 0.01 0 0 0 0 0 0 0.32zm0.7 0.28l-0.36 -0.56 0 0.56 -2.63 -1.71 0.36 -0.56 2.63 1.71 0 0.56zm0 0l0 -0.56 0.43 0.28 -0.43 0.28zm-2.81 1.43l-0.18 -0.28 2.63 -1.71 0.36 0.56 -2.63 1.71 -0.18 -0.28z"/>
  </g>
 </g>
</svg>
