<?xml version="1.0" encoding="utf-8"?>
<!-- Svg Vector Icons : http://www.onlinewebfonts.com/icon -->
<!DOCTYPE svg PUBLIC "-//W3C//DTD SVG 1.1//EN" "http://www.w3.org/Graphics/SVG/1.1/DTD/svg11.dtd">
<svg version="1.1" xmlns="http://www.w3.org/2000/svg" xmlns:xlink="http://www.w3.org/1999/xlink" x="0px" y="0px" viewBox="0 0 1000 1000" enable-background="new 0 0 1000 1000" xml:space="preserve">
<metadata> Svg Vector Icons : http://www.onlinewebfonts.com/icon </metadata>
<g><g transform="translate(0.000000,511.000000) scale(0.100000,-0.100000)"><path fill="white" d="M1725.3,3108.9c-231-49.1-413-192.2-513.2-398.7c-38.8-75.6-49.1-139-55.2-329.2c-8.2-190.1-16.4-243.3-47-284.2c-30.7-36.8-38.8-81.8-38.8-194.2c0-161.5,53.2-300.5,165.6-443.6c32.7-42.9,73.6-116.5,92-165.6C1428.9,997,1780.5,768,2044.3,827.3c153.3,34.8,231,79.7,245.3,141.1c45,212.6,186,435.5,365.9,576.5c104.3,81.8,132.9,116.5,153.3,192.2c32.7,114.5,18.4,335.3-22.5,366c-20.4,16.4-28.6,51.1-22.5,114.5c10.2,130.8-47,380.3-104.3,457.9c-26.6,34.8-55.2,90-63.4,122.7c-36.8,147.2-177.9,249.4-425.2,308.7C2019.7,3141.6,1880.7,3143.7,1725.3,3108.9z"/><path fill="white" d="M7838.2,3117.1c-139-30.7-335.3-134.9-410.9-218.8c-126.8-145.1-169.7-276-177.9-537.7c-6.1-182-16.3-239.2-40.9-257.6c-42.9-30.7-57.2-249.4-24.5-366c20.4-73.6,47-106.3,126.8-163.6c118.6-85.9,231-253.5,323-480.4c57.2-143.1,77.7-171.7,143.1-204.4c139-71.6,255.5-85.9,390.5-53.2c231,59.3,406.8,222.8,500.9,464.1c20.4,49.1,61.3,122.7,94.1,163.6c108.3,141.1,159.5,280.1,159.5,437.5c0,87.9-10.2,159.5-28.6,184c-14.3,22.5-32.7,118.6-38.8,214.7c-16.4,210.6-40.9,306.7-102.2,382.3c-26.6,30.7-59.3,96.1-71.6,143.1c-32.7,112.4-132.9,194.2-306.7,251.5C8218.4,3127.3,7975.2,3145.7,7838.2,3117.1z"/><path fill="white" d="M3072.6,1473.4c-237.1-63.4-427.3-235.1-498.8-449.8c-18.4-57.3-38.8-200.4-45-318.9c-6.1-134.9-20.4-226.9-38.8-245.3c-90-104.3-38.8-396.6,102.2-588.8c47-63.4,100.2-157.4,120.6-208.5c49.1-130.8,171.7-284.2,288.3-361.9c247.4-167.6,525.4-137,760.5,79.7c75.6,69.5,90,96.1,90,157.4c0,42.9,18.4,149.2,42.9,237.1c22.5,87.9,45,235.1,47,325.1c8.2,186,47,321,139,472.3c57.2,92,61.3,112.4,49.1,218.8c-6.1,65.4-32.7,157.4-57.2,202.4c-26.6,47-55.2,104.3-67.5,126.7c-10.2,22.5-38.8,79.7-61.3,124.7C3843.4,1446.8,3401.8,1563.3,3072.6,1473.4z"/><path fill="white" d="M6362.1,1463.2c-312.8-102.2-476.3-323-500.9-676.7c-10.2-143.1-6.1-163.6,51.1-276c83.8-167.6,147.2-382.3,147.2-500.9c0-55.2,18.4-157.4,40.9-229c22.5-69.5,40.9-171.7,40.9-222.8c0-85.9,8.2-102.2,90-177.9c171.7-159.5,386.4-220.8,578.6-169.7c188.1,51.1,394.6,249.4,470.2,451.8c18.4,51.1,71.6,139,114.5,198.3C7478.4-27.2,7552,171.1,7552,283.5c0,77.7-36.8,196.3-61.3,196.3c-8.2,0-18.4,90-24.5,200.4c-10.2,194.2-24.5,247.4-126.8,433.4c-14.3,28.6-45,85.9-65.4,128.8c-73.6,155.4-276,243.3-590.8,253.5C6525.7,1500,6452.1,1493.8,6362.1,1463.2z"/><path fill="white" d="M968.9,921.4c-341.4-147.2-435.5-202.4-550-321C257.4,430.7,114.3,81.1,104.1-174.4L100-305.3l71.6-36.8c104.3-49.1,476.4-137,742.1-171.7c126.8-16.4,421.2-38.9,656.3-49.1c353.7-14.3,437.5-12.3,482.5,10.2c30.7,16.4,128.8,57.2,216.7,92c90,36.8,165.6,67.5,167.6,71.6c4.1,4.1-28.6,69.5-75.6,147.2c-171.7,290.3-204.4,484.5-126.8,752.3c49.1,163.6,57.2,284.2,18.4,267.8c-126.7-51.1-261.7-77.7-357.8-67.5c-157.4,16.4-347.5,112.4-470.2,237.2c-57.2,57.3-116.5,104.3-130.8,104.3C1277.6,1050.2,1132.4,992.9,968.9,921.4z"/><path fill="white" d="M8617.1,992.9c-104.3-147.2-386.4-288.3-572.4-288.3c-69.5,0-196.3,30.7-294.4,71.6c-32.7,14.3-34.8,4.1-22.5-104.3c8.2-67.5,26.6-155.4,42.9-200.4c67.5-196.3,18.4-447.7-137-711.5c-81.8-134.9-87.9-179.9-30.7-179.9c14.3,0,116.5-36.8,229-81.8l200.4-79.7l404.8,18.4c437.5,20.4,666.5,45,924.1,94.1c218.8,40.9,492.7,128.8,523.4,165.6c20.4,22.5,20.4,65.4,0,190.1c-61.3,402.8-243.3,717.6-500.9,868.9c-104.3,61.3-658.3,296.4-697.1,296.4C8672.3,1052.2,8639.6,1025.6,8617.1,992.9z"/><path fill="white" d="M4863.5,784.4c-327.1-40.9-552-216.7-633.8-496.8c-18.4-57.2-30.7-184-30.7-294.4c0-161.5-6.1-200.4-40.9-243.3c-30.7-38.8-40.9-83.8-40.9-177.9c0-153.3,47-288.3,143.1-415c40.9-55.2,94-151.3,120.6-216.7c61.3-149.2,208.5-314.9,353.7-392.5c92-51.1,130.8-59.3,261.7-59.3c126.8-2.1,171.7,8.2,257.6,53.1c139,71.6,296.4,249.4,357.8,398.7c26.6,65.4,79.7,161.5,120.6,216.7c40.9,53.2,90,139,108.4,194.2c45,126.8,45,327.1,0,392.5c-22.5,30.7-32.7,79.7-28.6,141.1c6.1,143.1-51.1,384.4-110.4,464.1c-28.6,36.8-51.1,77.7-51.1,90c0,51.1-85.9,175.8-153.3,222.8C5352.2,759.9,5084.3,813,4863.5,784.4z"/><path fill="white" d="M2492-646.7c-552-222.9-699.2-329.2-846.4-611.3c-87.9-167.6-165.6-443.6-165.6-588.8c0-83.8,2-87.9,98.1-128.8c200.4-87.9,676.7-171.7,1212.4-212.6l155.4-12.3l24.5,87.9c90,302.6,292.4,572.4,550,734c149.2,94,382.3,206.5,513.2,245.3c47,14.3,83.8,28.6,83.8,30.7c0,4.1-36.8,63.4-79.7,130.8c-45,69.5-96.1,165.6-116.5,214.7l-32.7,90l-85.9-67.5c-147.2-120.6-251.5-161.5-431.4-171.7c-226.9-12.3-357.8,38.9-539.7,210.6l-137,130.8L2492-646.7z"/><path fill="white" d="M7190.1-671.2c-294.4-302.6-674.7-327.1-999.7-63.4l-85.9,67.5l-32.7-85.9c-18.4-47-67.5-145.1-112.5-218.8l-79.7-130.8l202.4-75.6c255.6-98.1,417.1-194.2,588.8-357.8c157.4-147.2,271.9-331.2,331.2-523.4l40.9-139l157.4,12.3c513.2,36.8,1026.3,124.7,1220.5,210.6c87.9,38.8,92,42.9,92,128.8c0,49.1-18.4,163.6-40.9,255.6c-79.7,337.3-269.9,611.3-507,738c-90,47-648.1,292.4-664.4,290.3C7298.5-562.9,7249.4-611.9,7190.1-671.2z"/><path fill="white" d="M4056-1399.1c-386.4-163.6-441.6-196.3-574.5-327.1c-182-182-316.9-502.9-329.2-789.2l-6.1-122.7l92-42.9c269.9-130.9,1044.7-233.1,1758.2-233.1c713.5,0,1488.3,102.2,1758.2,233.1l92,42.9l-6.1,122.7c-12.3,286.2-147.2,607.2-331.2,789.2c-124.7,126.7-259.6,200.4-635.8,353.7l-237.2,98.1l-114.5-116.5c-167.7-165.6-304.6-224.9-525.4-224.9c-220.8,0-357.8,59.3-523.4,224.9c-61.3,61.3-118.6,112.4-126.7,110.4C4338.1-1280.5,4207.3-1333.6,4056-1399.1z"/></g></g>
</svg>