<?xml version="1.0" encoding="UTF-8"?>
<!DOCTYPE svg PUBLIC "-//W3C//DTD SVG 1.1//EN" "http://www.w3.org/Graphics/SVG/1.1/DTD/svg11.dtd">
<!-- Creator: CorelDRAW 2020 (64-Bit) -->
<svg xmlns="http://www.w3.org/2000/svg" xml:space="preserve" width="1.77298in" height="1.44375in" version="1.1" style="shape-rendering:geometricPrecision; text-rendering:geometricPrecision; image-rendering:optimizeQuality; fill-rule:evenodd; clip-rule:evenodd"
viewBox="0 0 5344.11 4351.74"
 xmlns:xlink="http://www.w3.org/1999/xlink"
 xmlns:xodm="http://www.corel.com/coreldraw/odm/2003">
 <defs>
  <style type="text/css">
   <![CDATA[
    .fil0 {fill:#FF9900}
   ]]>
  </style>
 </defs>
 <g id="Layer_x0020_1">
  <metadata id="CorelCorpID_0Corel-Layer"/>
  <path class="fil0" d="M627.96 0l0 0c-345.39,0 -627.96,282.69 -627.96,627.96l0 3284.21c0,241.66 197.8,439.57 439.57,439.57l816.35 0 0 -3723.78c0,-345.39 -282.57,-627.96 -627.96,-627.96z"/>
  <path class="fil0" d="M5171.59 198.36l0 0c-238.23,-250.08 -637.74,-259.78 -887.81,-21.55l-2159.71 2057.35c-175.06,166.77 -181.85,446.41 -15.08,621.47l563.07 591.08 2477.98 -2360.55c250.07,-238.22 259.77,-637.73 21.55,-887.8z"/>
  <path class="fil0" d="M172.52 198.36l0 0c238.23,-250.08 637.74,-259.78 887.81,-21.55l2159.71 2057.35c175.06,166.77 181.85,446.41 15.08,621.47l-563.07 591.08 -2477.98 -2360.55c-250.07,-238.22 -259.77,-637.73 -21.55,-887.8z"/>
  <path class="fil0" d="M4716.15 0l0 0c345.39,0 627.96,282.69 627.96,627.96l0 3284.21c0,241.66 -197.8,439.57 -439.57,439.57l-816.35 0 0 -3723.78c0,-345.39 282.57,-627.96 627.96,-627.96z"/>
 </g>
</svg>
