<?xml version="1.0" encoding="UTF-8"?>
<!DOCTYPE svg PUBLIC "-//W3C//DTD SVG 1.1//EN" "http://www.w3.org/Graphics/SVG/1.1/DTD/svg11.dtd">
<!-- Creator: CorelDRAW 2020 (64-Bit) -->
<svg xmlns="http://www.w3.org/2000/svg" xml:space="preserve" width="1.11111in" height="1.22648in" version="1.1" style="shape-rendering:geometricPrecision; text-rendering:geometricPrecision; image-rendering:optimizeQuality; fill-rule:evenodd; clip-rule:evenodd"
viewBox="0 0 237.58 262.25"
 xmlns:xlink="http://www.w3.org/1999/xlink"
 xmlns:xodm="http://www.corel.com/coreldraw/odm/2003">
 <defs>
  <style type="text/css">
   <![CDATA[
    .fil0 {fill:#FF9900}
   ]]>
  </style>
 </defs>
 <g id="Layer_x0020_1">
  <metadata id="CorelCorpID_0Corel-Layer"/>
  <path class="fil0" d="M-0 147.72l67.18 -14.26 0 98 -67.18 14.26 0 -98zm73.87 -13.77l7.87 2.83c12.34,18.2 26.91,34.95 39.02,50.99 7.32,-9.29 15.52,-18.68 23.62,-28.43l11.94 4.3 0 97.75 -82.45 -29.43 0 -97.99zm89.13 30.13l74.58 -16.37 0 98 -74.58 16.52 0 -98.16z"/>
  <path class="fil0" d="M122.18 0c35.43,0 64.15,28.72 64.15,64.15 0,50.35 -38.81,85.61 -65.51,119.48 -25.63,-33.93 -62.78,-71.18 -62.78,-119.48 0,-35.43 28.72,-64.15 64.15,-64.15zm0 33.58c12.82,0 23.21,10.39 23.21,23.21 0,12.82 -10.39,23.21 -23.21,23.21 -12.82,0 -23.21,-10.39 -23.21,-23.21 0,-12.82 10.39,-23.21 23.21,-23.21z"/>
 </g>
</svg>
