<?xml version="1.0" encoding="UTF-8"?>
<!DOCTYPE svg PUBLIC "-//W3C//DTD SVG 1.1//EN" "http://www.w3.org/Graphics/SVG/1.1/DTD/svg11.dtd">
<!-- Creator: CorelDRAW 2020 (64-Bit) -->
<svg xmlns="http://www.w3.org/2000/svg" xml:space="preserve" width="0.740681in" height="1.15268in" version="1.1" style="shape-rendering:geometricPrecision; text-rendering:geometricPrecision; image-rendering:optimizeQuality; fill-rule:evenodd; clip-rule:evenodd"
viewBox="0 0 102.26 159.14"
 xmlns:xlink="http://www.w3.org/1999/xlink"
 xmlns:xodm="http://www.corel.com/coreldraw/odm/2003">
 <defs>
  <style type="text/css">
   <![CDATA[
    .fil0 {fill:#FF9900;fill-rule:nonzero}
   ]]>
  </style>
 </defs>
 <g id="Layer_x0020_1">
  <metadata id="CorelCorpID_0Corel-Layer"/>
  <path class="fil0" d="M102.26 141.86c-1.81,2.7 -4.66,6.57 -8.61,11.58 -8.57,4.01 -17.73,5.89 -27.45,5.69 -13.73,-13.79 -27.34,-35.06 -40.79,-63.82 -4.98,-10.65 -10.07,-23.46 -15.21,-38.43 -6.04,-17.66 -9.46,-30.76 -10.2,-39.32 6.08,-7.59 13.38,-13.45 21.92,-17.53 3.1,-0.14 7.95,0.17 14.45,0.93l12.16 32.48 -11.36 18.16c-1.02,6.9 -0.66,13.2 1.08,18.94 0.77,2.81 3.27,8.74 7.5,17.79 4.74,10.13 9.81,16.44 15.19,18.94 2.41,1.18 10.45,2.62 24.13,4.32l17.18 30.27z"/>
 </g>
</svg>
