<?xml version="1.0" encoding="UTF-8"?>
<!DOCTYPE svg PUBLIC "-//W3C//DTD SVG 1.1//EN" "http://www.w3.org/Graphics/SVG/1.1/DTD/svg11.dtd">
<!-- Creator: CorelDRAW 2020 (64-Bit) -->
<svg xmlns="http://www.w3.org/2000/svg" xml:space="preserve" width="1.81709in" height="1.81709in" version="1.1" style="shape-rendering:geometricPrecision; text-rendering:geometricPrecision; image-rendering:optimizeQuality; fill-rule:evenodd; clip-rule:evenodd"
viewBox="0 0 252.61 252.61"
 xmlns:xlink="http://www.w3.org/1999/xlink"
 xmlns:xodm="http://www.corel.com/coreldraw/odm/2003">
 <defs>
  <style type="text/css">
   <![CDATA[
    .fil0 {fill:white}
   ]]>
  </style>
 </defs>
 <g id="Layer_x0020_1">
  <metadata id="CorelCorpID_0Corel-Layer"/>
  <g id="_2413833091552">
   <path class="fil0" d="M252.61 252.61l-7.99 0 0.01 -39.45c-0.02,-1.46 -0.27,-1.78 -0.28,-3.33 -0.01,-10.35 0.17,-14.87 -5.45,-23.16 -2.9,-4.28 -7.09,-7.45 -11.34,-10.31 -1.38,-0.92 -2.98,-1.95 -4.5,-2.72 -3.28,-1.66 -6.47,-3.13 -9.63,-4.81 0,28.2 -0.26,55.74 -0.26,83.77l-7.99 0 0 -86.61c-1.21,-0.28 -13.33,-6.01 -15.21,-6.44 -0.81,3.49 -0.28,18.06 -0.26,22.94 0.01,2.19 -0.27,3.28 -0.26,5.41l0 64.7 -7.99 0 0 -97.18c-1.16,-0.1 -4.02,-1.7 -5.26,-2.21l-5.3 -2.17 -16.2 18.6c-0.54,0.67 -1.09,1.06 -1.62,1.73 -1.22,1.53 -4.84,5.94 -6.72,6.18 -2.24,0.29 -5.29,-4.11 -6.83,-5.7 -1.12,-1.16 -2.01,-2.17 -3.1,-3.34l-15.01 -17.21c-1.65,0.39 -8.94,4.16 -10.83,5.16l0 96.15 -7.99 0c0,-20.79 0,-41.59 0,-62.38 0,-10.26 -0.31,-21 -0.01,-31.2 0.02,-0.8 0.3,-6.63 0.59,-7.14 0.67,-1.21 3.36,-2.55 4.75,-3.24 1.01,-0.51 1.47,-0.87 2.49,-1.38l7.91 -3.95c0,-4.74 0.18,-11.44 -0.26,-15.98 -0.14,-1.45 -0.73,-1.55 -2.25,-3.42 -7.44,-9.12 -11.23,-19.24 -12.9,-31.43 -0.87,-6.34 -1.95,-4.44 -3.49,-7.59 -1.24,-2.53 -0.93,-6.52 -0.93,-10.15l8.25 0c0,1.4 -0.17,4.39 0.09,5.58 0.71,3.17 3.51,1.65 3.77,8.09 0.18,4.47 1.4,11.01 2.74,15.05 1.43,4.31 3.23,8.2 5.67,11.86 5.99,9.01 14.93,14.59 26.91,14.59 7.88,-0 13.34,-2.11 18.15,-5.31 9.36,-6.23 15.5,-19.19 16.86,-30.56 0.39,-3.24 0.32,-7.94 1.73,-10.12 2.52,-3.91 2.69,0.27 2.69,-9.16l8.25 0c0,12.41 -0.65,8.92 -3.25,13.25 -1.15,1.9 -1.99,9.73 -2.99,13.77 -1.34,5.42 -3.67,10.95 -6.5,15.66 -2.3,3.82 -3.17,4.68 -5.78,7.88 -0.46,0.56 -1.08,0.91 -1.26,1.57 -0.44,1.57 0.2,8.88 0.2,11.02 -0.01,1.89 -0,3.78 -0,5.67l12.2 5.33c1.43,0.69 2.64,1.19 4.11,1.82l24.71 10.34c2.86,1.14 5.58,2.33 8.21,3.65 3.24,1.62 8.05,4.36 10.97,6.55l4.83 3.94c4.83,4.06 8.59,9.48 10.94,15.36 2.17,5.45 2.39,9.01 2.39,15.39 0,4.1 0.26,7.46 0.26,11.34l0 35.31z"/>
   <path class="fil0" d="M197.45 50.26l0 0.77 7.99 0c-1.24,14.93 -27.74,20.76 -39.84,22.54 -3.21,0.47 -5.96,0.75 -9.39,0.92l-10.05 0.52c-4.17,0 -15.37,-0.79 -19.48,-1.39 -12.07,-1.77 -28.78,-5.67 -37.03,-15.04 -1.34,-1.53 -3.03,-4.78 -3.03,-7.53l7.99 0c0,-4.44 0.73,-7.93 1.7,-12.22 2.14,-9.46 7.68,-17.65 14.34,-24.32 9.53,-9.53 22.21,-14.5 36.8,-14.5 4.3,0 8.09,0.66 12.08,1.83 9.68,2.86 16.31,7.1 23.16,13.95 3.71,3.71 7.92,9.58 9.97,14.52 1.61,3.87 2.09,4.46 3.19,9.18 0.71,3.04 1.6,7.23 1.6,10.78z"/>
   <polygon class="fil0" points="-0,252.61 -0,122.18 15.98,122.18 15.98,130.17 7.99,130.17 7.99,244.36 86.61,244.36 86.61,130.17 78.88,130.17 78.88,122.18 94.86,122.18 94.86,252.61 "/>
   <polygon class="fil0" points="71.14,138.16 23.46,138.16 23.46,114.19 71.14,114.19 "/>
   <polygon class="fil0" points="63.15,169.87 15.72,169.87 15.72,161.62 63.15,161.62 "/>
   <polygon class="fil0" points="63.15,185.59 15.72,185.59 15.72,177.34 63.15,177.34 "/>
   <polygon class="fil0" points="63.15,201.31 15.72,201.31 15.72,193.07 63.15,193.07 "/>
   <polygon class="fil0" points="63.15,153.89 15.72,153.89 15.72,145.9 63.15,145.9 "/>
   <polygon class="fil0" points="35.57,228.9 15.72,228.9 15.72,220.91 35.57,220.91 "/>
   <polygon class="fil0" points="79.13,169.87 70.89,169.87 70.89,161.62 79.13,161.62 "/>
   <polygon class="fil0" points="79.13,185.59 70.89,185.59 70.89,177.34 79.13,177.34 "/>
   <polygon class="fil0" points="79.13,201.31 70.89,201.31 70.89,193.07 79.13,193.07 "/>
   <polygon class="fil0" points="79.13,153.89 70.89,153.89 70.89,145.9 79.13,145.9 "/>
   <polygon class="fil0" points="150.02,209.31 142.03,209.31 142.03,201.06 150.02,201.06 "/>
   <polygon class="fil0" points="150.02,225.03 142.03,225.03 142.03,216.78 150.02,216.78 "/>
   <polygon class="fil0" points="150.02,193.32 142.03,193.32 142.03,185.33 150.02,185.33 "/>
  </g>
 </g>
</svg>
