<?xml version="1.0" encoding="utf-8"?>
<!-- Svg Vector Icons : http://www.onlinewebfonts.com/icon -->
<!DOCTYPE svg PUBLIC "-//W3C//DTD SVG 1.1//EN" "http://www.w3.org/Graphics/SVG/1.1/DTD/svg11.dtd">
<svg version="1.1" xmlns="http://www.w3.org/2000/svg" xmlns:xlink="http://www.w3.org/1999/xlink" x="0px" y="0px" viewBox="0 0 1000 1000" enable-background="new 0 0 1000 1000" xml:space="preserve">
<metadata> Svg Vector Icons : http://www.onlinewebfonts.com/icon </metadata>
<g><path fill="white" d="M282.2,297c-8.1,2-16.6,3.1-25.3,3.1c-59.7,0-108.2-48.5-108.2-108.2c0-59.7,48.5-108.2,108.2-108.2c46.1,0,85.4,29,101,69.7c8.9-6.6,18.3-12.4,28.3-17.4c-21.6-50-71.4-85-129.3-85C179.1,51,116,114.1,116,191.9c0,77.8,63.1,140.9,140.9,140.9c9.2,0,18.2-0.9,27-2.6c-1.2-8.5-1.8-17.1-1.8-25.9C282,301.7,282.1,299.3,282.2,297z"/><path fill="white" d="M46.1,651.2l2.4-105.5l0.2-1.6v-1.6c0-73.7,40.1-142.2,103.3-178.8c31.8,16.4,67,25,103,25c15.2,0,30.2-1.6,44.9-4.6c-4.7-9.9-8.5-20.3-11.4-31.1c-10.9,1.9-22,3-33.5,3c-37.6,0-72.7-10.9-102.3-29.6C71.8,364.8,16,447.1,16,542.5l-6,141.4h146.6c7.2-11.4,15.1-22.3,23.6-32.7L46.1,651.2L46.1,651.2z"/><path fill="white" d="M746.9,83.7c59.7,0,108.2,48.5,108.2,108.2c0,59.7-48.5,108.2-108.2,108.2c-8.3,0-16.3-1-24-2.8c0.1,2.3,0.2,4.6,0.2,6.9c0,8.9-0.7,17.6-1.9,26.1c8.4,1.5,16.9,2.5,25.7,2.5c77.8,0,140.9-63.1,140.9-140.9c0-77.8-63.1-140.9-140.9-140.9c-57.7,0-107.3,34.8-129.1,84.5c10,4.9,19.4,10.7,28.3,17.2C661.9,112.3,701.1,83.7,746.9,83.7z"/><path fill="white" d="M745,388.7c36,0,71.3-8.6,103-25c63.3,36.6,103.3,105.1,103.3,178.8v1.6l0.2,1.6l2.4,105.5H819.7c8.5,10.4,16.5,21.3,23.7,32.7H990l-6-141.4c0-95.4-55.9-177.7-136.7-216C817.7,345.2,782.6,356,745,356c-9.8,0-19.3-0.8-28.7-2.2c-3,10.8-6.8,21.3-11.6,31.2C717.9,387.5,731.4,388.7,745,388.7z"/><path fill="white" d="M818.7,787.7c0-127.2-74.5-236.9-182.2-288.1c-39.5,25-86.3,39.5-136.4,39.5c-50.2,0-97-14.5-136.5-39.5c-107.7,51.1-182.2,160.9-182.2,288.1l-8,161.3h653.3L818.7,787.7z"/><path fill="white" d="M312.2,320.2C312.2,423.9,396.3,508,500,508c103.7,0,187.8-84.1,187.8-187.8c0-103.7-84.1-187.8-187.8-187.8C396.3,132.4,312.2,216.5,312.2,320.2z"/></g>
</svg>